<svg xmlns="http://www.w3.org/2000/svg" xmlns:xlink="http://www.w3.org/1999/xlink" width="240" zoomAndPan="magnify" viewBox="0 0 180 48.75" height="65" preserveAspectRatio="xMidYMid meet" version="1.0"><defs><g/></defs><g fill="#bc7201" fill-opacity="1"><g transform="translate(24.187498, 32.458547)"><g><path d="M 16.171875 -3.28125 L 16.171875 0 L 0.9375 0 L 0.9375 -2.609375 L 10.5 -14.125 L 1.140625 -14.125 L 1.140625 -17.40625 L 15.796875 -17.40625 L 15.796875 -14.796875 L 6.265625 -3.28125 Z M 16.171875 -3.28125 "/></g></g></g><g fill="#bc7201" fill-opacity="1"><g transform="translate(40.874271, 32.458547)"><g><path d="M 15.546875 -3.234375 L 15.546875 0 L 2.0625 0 L 2.0625 -17.40625 L 15.21875 -17.40625 L 15.21875 -14.171875 L 6.0625 -14.171875 L 6.0625 -10.390625 L 14.15625 -10.390625 L 14.15625 -7.265625 L 6.0625 -7.265625 L 6.0625 -3.234375 Z M 15.546875 -3.234375 "/></g></g></g><g fill="#bc7201" fill-opacity="1"><g transform="translate(57.561044, 32.458547)"><g><path d="M 18.03125 -17.40625 L 18.03125 0 L 14.71875 0 L 6.046875 -10.578125 L 6.046875 0 L 2.0625 0 L 2.0625 -17.40625 L 5.390625 -17.40625 L 14.046875 -6.84375 L 14.046875 -17.40625 Z M 18.03125 -17.40625 "/></g></g></g><g fill="#bc7201" fill-opacity="1"><g transform="translate(77.654807, 32.458547)"><g><path d="M 2.0625 -17.40625 L 6.09375 -17.40625 L 6.09375 0 L 2.0625 0 Z M 2.0625 -17.40625 "/></g></g></g><g fill="#bc7201" fill-opacity="1"><g transform="translate(85.811684, 32.458547)"><g><path d="M 5.671875 -14.125 L 0.09375 -14.125 L 0.09375 -17.40625 L 15.265625 -17.40625 L 15.265625 -14.125 L 9.703125 -14.125 L 9.703125 0 L 5.671875 0 Z M 5.671875 -14.125 "/></g></g></g><g fill="#bc7201" fill-opacity="1"><g transform="translate(101.180425, 32.458547)"><g><path d="M 18.03125 -17.40625 L 18.03125 0 L 14 0 L 14 -7.140625 L 6.09375 -7.140625 L 6.09375 0 L 2.0625 0 L 2.0625 -17.40625 L 6.09375 -17.40625 L 6.09375 -10.546875 L 14 -10.546875 L 14 -17.40625 Z M 18.03125 -17.40625 "/></g></g></g><g fill="#bc7201" fill-opacity="1"><g transform="translate(121.274187, 32.458547)"><g/></g></g><g fill="#bc7201" fill-opacity="1"><g transform="translate(128.311975, 32.458547)"><g><path d="M 2.0625 -17.40625 L 6.09375 -17.40625 L 6.09375 0 L 2.0625 0 Z M 2.0625 -17.40625 "/></g></g></g><g fill="#bc7201" fill-opacity="1"><g transform="translate(136.468852, 32.458547)"><g><path d="M 13.53125 -3.734375 L 5.453125 -3.734375 L 3.90625 0 L -0.21875 0 L 7.53125 -17.40625 L 11.515625 -17.40625 L 19.296875 0 L 15.078125 0 Z M 12.265625 -6.796875 L 9.5 -13.453125 L 6.734375 -6.796875 Z M 12.265625 -6.796875 "/></g></g></g><g fill="#bc7201" fill-opacity="1"><g transform="translate(155.525687, 32.458547)"><g/></g></g><g fill="#bc7201" fill-opacity="1"><g transform="translate(151.75363, 17.634566)"><g><path d="M 5.46875 -9.78125 C 6.382812 -9.78125 7.21875 -9.566406 7.96875 -9.140625 C 8.71875 -8.710938 9.304688 -8.125 9.734375 -7.375 C 10.160156 -6.632812 10.375 -5.8125 10.375 -4.90625 C 10.375 -3.988281 10.15625 -3.148438 9.71875 -2.390625 C 9.28125 -1.640625 8.6875 -1.046875 7.9375 -0.609375 C 7.1875 -0.171875 6.351562 0.046875 5.4375 0.046875 C 4.53125 0.046875 3.703125 -0.171875 2.953125 -0.609375 C 2.210938 -1.046875 1.625 -1.640625 1.1875 -2.390625 C 0.757812 -3.140625 0.546875 -3.96875 0.546875 -4.875 C 0.546875 -5.769531 0.757812 -6.59375 1.1875 -7.34375 C 1.625 -8.101562 2.21875 -8.695312 2.96875 -9.125 C 3.71875 -9.5625 4.550781 -9.78125 5.46875 -9.78125 Z M 5.4375 -0.859375 C 6.1875 -0.859375 6.863281 -1.035156 7.46875 -1.390625 C 8.070312 -1.753906 8.546875 -2.242188 8.890625 -2.859375 C 9.242188 -3.472656 9.421875 -4.15625 9.421875 -4.90625 C 9.421875 -5.65625 9.25 -6.332031 8.90625 -6.9375 C 8.570312 -7.539062 8.101562 -8.015625 7.5 -8.359375 C 6.894531 -8.703125 6.21875 -8.875 5.46875 -8.875 C 4.71875 -8.875 4.039062 -8.695312 3.4375 -8.34375 C 2.832031 -8 2.359375 -7.519531 2.015625 -6.90625 C 1.671875 -6.289062 1.5 -5.613281 1.5 -4.875 C 1.5 -4.132812 1.671875 -3.457031 2.015625 -2.84375 C 2.359375 -2.226562 2.828125 -1.742188 3.421875 -1.390625 C 4.023438 -1.035156 4.695312 -0.859375 5.4375 -0.859375 Z M 8.03125 -5.65625 C 8.03125 -5.257812 7.941406 -4.921875 7.765625 -4.640625 C 7.597656 -4.359375 7.347656 -4.140625 7.015625 -3.984375 L 8.203125 -2.171875 L 6.75 -2.171875 L 5.734375 -3.734375 L 4.78125 -3.734375 L 4.78125 -2.171875 L 3.328125 -2.171875 L 3.328125 -7.578125 L 5.6875 -7.578125 C 6.414062 -7.578125 6.988281 -7.398438 7.40625 -7.046875 C 7.820312 -6.703125 8.03125 -6.238281 8.03125 -5.65625 Z M 5.578125 -4.8125 C 5.898438 -4.8125 6.148438 -4.882812 6.328125 -5.03125 C 6.515625 -5.175781 6.609375 -5.382812 6.609375 -5.65625 C 6.609375 -5.925781 6.515625 -6.132812 6.328125 -6.28125 C 6.148438 -6.425781 5.898438 -6.5 5.578125 -6.5 L 4.765625 -6.5 L 4.765625 -4.8125 Z M 5.578125 -4.8125 "/></g></g></g></svg>